<?xml version="1.0" encoding="UTF-8"?>
<svg id="_Слой_19" data-name="Слой 19" xmlns="http://www.w3.org/2000/svg" xmlns:xlink="http://www.w3.org/1999/xlink" viewBox="0 0 500 500">
  <defs>
    <style>
      .cls-1 {
        fill: #fff;
      }

      .cls-2 {
        filter: url(#drop-shadow-10);
      }

      .cls-2, .cls-3 {
        fill: #dc146e;
      }

      .cls-3 {
        filter: url(#drop-shadow-9);
      }
    </style>
    <filter id="drop-shadow-9" x="3.84" y="12.12" width="505.2" height="490.8" filterUnits="userSpaceOnUse">
      <feOffset dx="7" dy="7"/>
      <feGaussianBlur result="blur" stdDeviation="5"/>
      <feFlood flood-color="#000" flood-opacity=".75"/>
      <feComposite in2="blur" operator="in"/>
      <feComposite in="SourceGraphic"/>
    </filter>
    <filter id="drop-shadow-10" x="143.6" y="115" width="258.96" height="284.88" filterUnits="userSpaceOnUse">
      <feOffset dx="7" dy="7"/>
      <feGaussianBlur result="blur-2" stdDeviation="5"/>
      <feFlood flood-color="#000" flood-opacity=".75"/>
      <feComposite in2="blur-2" operator="in"/>
      <feComposite in="SourceGraphic"/>
    </filter>
  </defs>
  <path class="cls-1" d="M487,242.44c0,147.58-69.52,223.1-222.75,222.12-13.04.06-25.33.01-36.94-.24h-.29c-79.4-.83-138.3-2.77-215.16,16.43,27.69-86.81,24.76-127.01,29.64-244.96l.03.03C43.08,59.53,107.09,19.35,264.25,20.32c145.4,0,222.75,81.4,222.75,222.12Z"/>
  <path class="cls-3" d="M264.25,20.32c-157.16-.97-221.17,39.21-222.72,215.5l-.03-.03c-4.89,117.94-1.96,158.15-29.64,244.96,76.86-19.2,135.76-17.26,215.16-16.43h.28c11.61.24,23.9.3,36.94.24,153.23.98,222.75-74.53,222.75-222.12S409.65,20.32,264.25,20.32ZM262.04,428.74c-10.88.06-21.16,0-30.84-.19h-.24c-66.3-.7-115.48-2.31-179.67,13.7,23.12-72.38,20.67-105.89,24.76-204.23l.02.02c1.29-146.98,54.75-180.47,185.98-179.67,121.42,0,186.01,67.86,186.01,185.19,0,123.06-58.06,186.01-186.01,185.19Z"/>
  <path class="cls-2" d="M380.4,303.14s1.16,33.84-13.87,48.55c0,0-12.92,23.39-53.31,26.04h-161.58V123h48.96v206.72h90.12c3.38,0,6.71-.03,10.08-.31,7.55-.64,15.99-1.8,22.53-5.87.46-.27.9-.56,1.32-.88,2.25-1.61,4.11-3.93,4.63-6.64.22-1.17.19-2.38.13-3.59-.06-1.36-.14-2.74-.53-4.06-.75-2.6-2.62-4.76-4.68-6.54-6.71-5.79-15.88-7-24.2-9.24-9.56-2.55-19.13-5.15-28.6-8.06-3.41-1.05-6.89-2.07-10.16-3.51-20.4-8.94-41.87-17.71-49.5-40.68-1.71-5.15-2.58-10.57-2.94-15.99-1.35-19.76,1.38-42.82,16.28-57.29,8.62-8.36,19.98-13.14,31.8-14.73,0,0,5.31-.7,13.36-.81h93.12l-36.72,48.41h-44.41c-7.11,0-15.28-.64-21.84,2.68-2.67,1.36-4.98,3.8-5.37,6.78-.25,2.04.42,4.1,1.46,5.87,1.88,3.18,4.93,5.53,8.09,7.45,9.39,5.68,20.92,8,31.34,11.16,8.51,2.58,17.01,5.17,25.5,7.75.83.25,1.68.5,2.51.75,0,0,35.66,11.15,44.85,24.79,0,0,12.2,15.36,11.59,35.96Z"/>
</svg>